<svg width="27" height="27" viewBox="0 0 27 27" fill="none" xmlns="http://www.w3.org/2000/svg">
<path d="M26.1028 9.98981L24.2571 8.19477L16.7691 15.6091C16.6812 15.8519 16.5581 16.0513 16.3999 16.2074C16.0484 16.5543 15.6177 16.693 15.108 16.6237C14.651 16.641 14.2642 16.4936 13.9479 16.1814C13.7897 16.0427 13.6754 15.8606 13.6051 15.6351L12.6295 14.6725C12.5944 14.7246 12.1154 15.2492 11.1926 16.2464C10.2697 17.2437 9.76437 17.7857 9.67649 17.8724C9.32493 18.2193 8.88549 18.358 8.35816 18.2886C7.90115 18.306 7.51444 18.1586 7.19804 17.8464C7.03984 17.7076 6.92559 17.5255 6.85528 17.3001L6.72344 17.17L3.50674 20.3438C3.48916 20.3612 3.46719 20.3785 3.44082 20.3959C3.41446 20.4132 3.39248 20.4305 3.37491 20.4479V23.3096H25.3118C25.7688 23.3096 26.1643 23.4743 26.4983 23.8038C26.8323 24.1334 26.9992 24.5279 26.9992 24.9875C26.9992 25.4471 26.8323 25.8374 26.4983 26.1582C26.1643 26.4791 25.7688 26.6395 25.3118 26.6395H1.68745C1.21286 26.6395 0.812966 26.4791 0.487779 26.1582C0.162593 25.8374 0 25.4428 0 24.9745V1.66497C0 1.21404 0.162593 0.823812 0.487779 0.494287C0.812966 0.164762 1.20846 0 1.67427 0C2.14008 0 2.53997 0.164762 2.87394 0.494287C3.20792 0.823812 3.37491 1.21404 3.37491 1.66497V16.1034L5.16782 14.3343C5.23813 14.1262 5.35239 13.9441 5.51059 13.788C5.82699 13.4758 6.21369 13.3284 6.67071 13.3458C7.18046 13.2937 7.61111 13.4325 7.96267 13.762C8.12087 13.9181 8.24391 14.1262 8.3318 14.3864L8.4109 14.4644L11.0739 11.8369C11.1442 11.6288 11.2585 11.4467 11.4167 11.2906C11.7331 10.9784 12.1198 10.831 12.5768 10.8483C13.1041 10.7963 13.5348 10.935 13.8688 11.2646C14.027 11.4206 14.15 11.6288 14.2379 11.8889L15.1607 12.7994L22.0424 6.0095L20.2494 4.24047C20.2319 3.6161 20.4252 3.31259 20.8295 3.32994H26.1555C26.4016 3.34728 26.5994 3.42966 26.7488 3.57708C26.8982 3.7245 26.9817 3.91961 26.9992 4.16242V9.41748C27.0168 9.83372 26.718 10.0245 26.1028 9.98981Z" fill="#FFFAFA"/>
</svg>
