<svg width="29" height="25" viewBox="0 0 29 25" fill="none" xmlns="http://www.w3.org/2000/svg">
<path d="M13.2354 7.0459L15.8853 7.74414C15.9753 7.76519 16.0558 7.81537 16.1143 7.88689C16.1729 7.95841 16.2061 8.04727 16.209 8.13965C16.209 8.36426 16.0093 8.5498 15.7637 8.5498H14.0254C13.8381 8.54926 13.6526 8.5128 13.479 8.44238C13.2231 8.33496 12.9282 8.35938 12.7319 8.54004L11.8042 9.39453C11.7613 9.43209 11.7243 9.47587 11.6943 9.52441C11.656 9.58724 11.6305 9.65703 11.6193 9.72975C11.6081 9.80247 11.6114 9.8767 11.629 9.94814C11.6467 10.0196 11.6782 10.0868 11.7219 10.146C11.7657 10.2052 11.8207 10.2551 11.8838 10.293C12.3976 10.6013 12.9728 10.793 13.5688 10.8545V11.7188C13.5688 12.1484 13.9512 12.5 14.417 12.5H15.2651C15.7314 12.5 16.1138 12.1484 16.1138 11.7188V10.8594C17.7217 10.6836 18.938 9.3457 18.7261 7.7832C18.5723 6.66016 17.6294 5.7666 16.4526 5.4541L13.8027 4.75586C13.7127 4.73481 13.6322 4.68463 13.5737 4.61311C13.5151 4.54159 13.4818 4.45273 13.479 4.36035C13.479 4.13574 13.6787 3.9502 13.9243 3.9502H15.6626C15.8506 3.95049 16.0367 3.98696 16.2109 4.05762C16.4663 4.16504 16.7617 4.14062 16.958 3.95996L17.8857 3.10547C17.9272 3.06871 17.963 3.02591 17.9917 2.97852C18.0303 2.91571 18.0561 2.84587 18.0676 2.77304C18.0791 2.7002 18.076 2.62581 18.0586 2.55417C18.0412 2.48253 18.0097 2.41505 17.966 2.35563C17.9224 2.29622 17.8674 2.24604 17.8042 2.20801C17.2902 1.89967 16.7148 1.70798 16.1187 1.64648V0.78125C16.1187 0.351562 15.7368 0 15.2705 0H14.4224C13.9561 0 13.5742 0.351562 13.5742 0.78125V1.64062C11.9683 1.81641 10.7495 3.1543 10.9614 4.7168C11.1147 5.83984 12.0605 6.7334 13.2354 7.0459ZM27.6011 16.0205C27.0249 15.498 26.1265 15.5322 25.521 16.0205L21.0093 19.6289C20.4555 20.0732 19.7662 20.3145 19.0562 20.3125H13.2812C13.074 20.3125 12.8753 20.2302 12.7288 20.0837C12.5823 19.9372 12.5 19.7385 12.5 19.5312C12.5 19.324 12.5823 19.1253 12.7288 18.9788C12.8753 18.8323 13.074 18.75 13.2812 18.75H17.104C17.8804 18.75 18.6035 18.2178 18.7275 17.4512C18.7428 17.3631 18.7503 17.2739 18.75 17.1846C18.7492 16.7707 18.5843 16.374 18.2913 16.0816C17.9984 15.7892 17.6014 15.625 17.1875 15.625H9.375C8.05743 15.6253 6.78001 16.0786 5.75684 16.9087L3.48633 18.75H0.78125C0.57405 18.75 0.375336 18.8323 0.228823 18.9788C0.08231 19.1253 0 19.324 0 19.5312L0 24.2188C0 24.426 0.08231 24.6247 0.228823 24.7712C0.375336 24.9177 0.57405 25 0.78125 25H18.2017C18.9114 25.0006 19.6003 24.7595 20.1548 24.3164L27.5391 18.4082C27.7167 18.2661 27.8612 18.087 27.9624 17.8833C28.0636 17.6796 28.1191 17.4563 28.1251 17.2289C28.131 17.0015 28.0873 16.7756 27.9968 16.5668C27.9064 16.3581 27.7715 16.1717 27.6016 16.0205H27.6011Z" fill="white"/>
</svg>
