<svg width="25" height="20" viewBox="0 0 25 20" fill="none" xmlns="http://www.w3.org/2000/svg">
<path d="M9.41298 11.2501C14.6117 11.2501 18.8259 14.0481 18.826 17.4999V17.9913C18.8259 19.1006 17.9266 20 16.8172 20H2.00873C0.899353 20 2.27505e-05 19.1006 0 17.9913V17.4999C6.97785e-05 14.0482 4.21436 11.2501 9.41298 11.2501ZM9.41298 0C12.3837 0 14.7918 2.23883 14.7918 5.00025C14.7917 7.76155 12.3836 9.99951 9.41298 9.99951C6.44244 9.99943 4.03428 7.7615 4.03413 5.00025C4.03413 2.23887 6.44235 7.66291e-05 9.41298 0ZM20.1707 2.50012C20.9132 2.50012 21.5152 3.05947 21.5154 3.74969V5.00025H22.8601C23.6027 5.00025 24.2047 5.55953 24.2048 6.24982C24.2048 6.94017 23.6028 7.50037 22.8601 7.50037H21.5154V8.74994C21.5154 9.44029 20.9133 9.99951 20.1707 9.99951C19.4281 9.99934 18.826 9.44019 18.826 8.74994V7.50037H17.4812C16.7387 7.50023 16.1365 6.94008 16.1365 6.24982C16.1366 5.55962 16.7387 5.00039 17.4812 5.00025H18.826V3.74969C18.8261 3.05957 19.4282 2.50029 20.1707 2.50012Z" fill="white"/>
</svg>
