<svg width="26" height="23" viewBox="0 0 26 23" fill="none" xmlns="http://www.w3.org/2000/svg">
<path fill-rule="evenodd" clip-rule="evenodd" d="M19.7624 17.8187L25.105 12.3559C25.3601 12.1009 25.4907 11.7789 25.4909 11.4552C25.491 11.2338 25.4301 11.0115 25.3064 10.8094C25.2514 10.7193 25.1842 10.6337 25.105 10.5545L19.7624 5.09177C19.2012 4.518 18.2155 4.45151 17.5608 4.94325C16.906 5.435 16.8302 6.29877 17.3913 6.87254L20.535 10.0869L8.44282 10.0869C7.58051 10.0869 6.88146 10.6995 6.88146 11.4551C6.88146 12.2108 7.58051 12.8234 8.44282 12.8234L20.5352 12.8234L17.3913 16.0379C16.8302 16.6117 16.906 17.4755 17.5608 17.9672C18.2155 18.459 19.2012 18.3925 19.7624 17.8187ZM9.87728 3.24563C10.7396 3.24563 11.4386 3.85822 11.4386 4.61388L11.4386 6.66625C11.4386 7.42192 12.1377 8.0345 13 8.0345C13.8623 8.0345 14.5614 7.42192 14.5614 6.66625L14.5614 4.61388C14.5614 2.34689 12.4642 0.509138 9.87728 0.509138L5.1932 0.509138C2.60626 0.509138 0.509129 2.34689 0.509129 4.61388L0.509128 18.2964C0.509128 20.5634 2.60626 22.4011 5.1932 22.4011L9.87728 22.4011C12.4642 22.4011 14.5614 20.5633 14.5614 18.2964L14.5614 16.244C14.5614 15.4883 13.8623 14.8757 13 14.8757C12.1377 14.8757 11.4386 15.4883 11.4386 16.244L11.4386 18.2964C11.4386 19.052 10.7396 19.6646 9.87728 19.6646L5.1932 19.6646C4.33089 19.6646 3.63185 19.052 3.63185 18.2964L3.63185 4.61388C3.63185 3.85822 4.33089 3.24563 5.1932 3.24563L9.87728 3.24563Z" fill="#505054" stroke="black" stroke-linecap="round"/>
</svg>
