<svg width="37" height="33" viewBox="0 0 37 33" fill="none" xmlns="http://www.w3.org/2000/svg">
<path d="M18.4999 11C20.1354 11 21.704 11.5795 22.8604 12.6109C24.0169 13.6424 24.6666 15.0413 24.6666 16.5C24.6666 17.9587 24.0169 19.3576 22.8604 20.3891C21.704 21.4205 20.1354 22 18.4999 22C16.8644 22 15.2959 21.4205 14.1395 20.3891C12.983 19.3576 12.3333 17.9587 12.3333 16.5C12.3333 15.0413 12.983 13.6424 14.1395 12.6109C15.2959 11.5795 16.8644 11 18.4999 11ZM18.4999 13.75C17.6822 13.75 16.8979 14.0397 16.3197 14.5555C15.7415 15.0712 15.4166 15.7707 15.4166 16.5C15.4166 17.2293 15.7415 17.9288 16.3197 18.4445C16.8979 18.9603 17.6822 19.25 18.4999 19.25C19.3177 19.25 20.102 18.9603 20.6802 18.4445C21.2584 17.9288 21.5833 17.2293 21.5833 16.5C21.5833 15.7707 21.2584 15.0712 20.6802 14.5555C20.102 14.0397 19.3177 13.75 18.4999 13.75ZM15.4166 30.25C15.0312 30.25 14.7074 30.0025 14.6458 29.6725L14.0754 26.0288C13.1041 25.685 12.2716 25.2175 11.4699 24.6675L7.6312 26.0563C7.29203 26.1663 6.87578 26.0563 6.69078 25.7538L3.60745 20.9963C3.51309 20.8546 3.47983 20.6871 3.51387 20.5251C3.54792 20.3632 3.64695 20.2178 3.79245 20.1163L7.04536 17.8338L6.93745 16.5L7.04536 15.125L3.79245 12.8838C3.64695 12.7822 3.54792 12.6368 3.51387 12.4749C3.47983 12.3129 3.51309 12.1454 3.60745 12.0037L6.69078 7.24625C6.87578 6.94375 7.29203 6.82 7.6312 6.94375L11.4699 8.31875C12.2716 7.7825 13.1041 7.315 14.0754 6.97125L14.6458 3.3275C14.7074 2.9975 15.0312 2.75 15.4166 2.75H21.5833C21.9687 2.75 22.2924 2.9975 22.3541 3.3275L22.9245 6.97125C23.8958 7.315 24.7283 7.7825 25.5299 8.31875L29.3687 6.94375C29.7079 6.82 30.1241 6.94375 30.3091 7.24625L33.3924 12.0037C33.5929 12.3063 33.5004 12.6775 33.2074 12.8838L29.9545 15.125L30.0624 16.5L29.9545 17.875L33.2074 20.1163C33.5004 20.3225 33.5929 20.6938 33.3924 20.9963L30.3091 25.7538C30.1241 26.0563 29.7079 26.18 29.3687 26.0563L25.5299 24.6813C24.7283 25.2175 23.8958 25.685 22.9245 26.0288L22.3541 29.6725C22.2924 30.0025 21.9687 30.25 21.5833 30.25H15.4166ZM17.3437 5.5L16.7733 9.08875C14.9233 9.4325 13.2891 10.3125 12.102 11.5363L8.38661 10.1063L7.23036 11.8938L10.4833 14.025C9.86661 15.6292 9.86661 17.3708 10.4833 18.975L7.21495 21.12L8.3712 22.9075L12.1174 21.4775C13.3045 22.6875 14.9233 23.5675 16.7579 23.8975L17.3283 27.5H19.6716L20.242 23.9113C22.0766 23.5675 23.6954 22.6875 24.8824 21.4775L28.6287 22.9075L29.7849 21.12L26.5166 18.9888C27.1333 17.38 27.1333 15.6338 26.5166 14.025L29.7695 11.8938L28.6133 10.1063L24.8979 11.5363C23.6865 10.2854 22.0432 9.4293 20.2266 9.1025L19.6562 5.5H17.3437Z" fill="#4F4B4B"/>
</svg>
