<svg width="70" height="59" viewBox="0 0 70 59" fill="none" xmlns="http://www.w3.org/2000/svg">
<g filter="url(#filter0_d_50_27)">
<path d="M63.9228 44.6984H6.0772V36.0528V36.0116C6.0772 20.7096 15.4463 7.87463 28.0697 4.40102L28.2673 4.355L29.0024 7.84543C17.6006 10.9348 9.25895 22.3324 9.25895 35.9266C9.25895 35.9697 9.25905 36.0128 9.2592 36.0559V36.0493V41.111H60.7411V36.0528V36.0297C60.7411 22.4074 52.4033 10.9808 41.1676 7.88296L40.9915 7.8419L41.736 4.355C54.5476 7.91421 63.9029 20.7468 63.9228 36.0466V36.0492L63.9228 44.6984ZM7.66812 41.111H62.3318C66.5669 41.111 70 44.9818 70 49.7565C70 54.5312 66.5668 58.402 62.3318 58.402H7.66812C3.43327 58.402 0 54.5313 0 49.7565C0 44.9818 3.43312 41.111 7.66812 41.111ZM62.3318 54.8147C64.8096 54.8147 66.8183 52.5501 66.8183 49.7565C66.8183 46.963 64.8096 44.6984 62.3318 44.6984H7.66833C5.19063 44.6984 3.18196 46.963 3.18196 49.7565C3.18196 52.5501 5.19058 54.8147 7.66833 54.8147H62.3318ZM45.8182 44.6984H24.1818L27.4591 0H42.5409L45.8182 44.6984ZM27.6182 41.111H42.3627L40.9882 22.3492L39.6137 3.58745H30.3864L27.6182 41.111Z" fill="#272620"/>
<path d="M5.07134 44.4062C3.31651 45.4471 2.1761 47.5044 2.1761 49.7565C2.17611 52.9887 4.52473 55.8209 7.66792 55.8211H62.3317C65.4752 55.8211 67.8245 52.9889 67.8245 49.7565C67.8245 47.5042 66.6834 45.447 64.9283 44.4062V42.7262C67.2782 43.8721 68.9936 46.5275 68.9936 49.7565C68.9936 54.0925 65.9011 57.396 62.3317 57.396H7.66792C4.09881 57.3958 1.00602 54.0924 1.00602 49.7565C1.00602 46.5274 2.72136 43.8711 5.07134 42.7252V44.4062ZM62.3317 42.1171C62.5282 42.1171 62.7231 42.1289 62.9163 42.1485V43.6919H46.7532L46.6383 42.1171H62.3317ZM7.66792 42.1171H23.3624L23.2474 43.6919H7.08337V42.1485C7.27655 42.1289 7.47142 42.1171 7.66792 42.1171ZM44.6203 42.1171L44.7353 43.6919H25.2644L25.3793 42.1171H44.6203ZM25.8754 7.84182C15.4895 12.0604 8.25248 23.0885 8.25248 35.9268L8.25346 36.0594V40.1051H7.66792C7.47114 40.1051 7.27635 40.1146 7.08337 40.1286V36.0112C7.0835 22.073 15.055 10.3381 26.0002 6.13925L25.8754 7.84182ZM44.0024 6.17265C54.8332 10.4214 62.6333 21.7924 62.9094 35.351L62.9173 36.0476V36.0496L62.9163 40.1286C62.7233 40.1146 62.5285 40.1051 62.3317 40.1051H61.7472V36.0299C61.7472 23.1125 54.4534 12.0138 44.1232 7.82511L44.0024 6.17265ZM41.0099 8.88418C41.414 8.99786 41.8142 9.12338 42.2104 9.25947L44.473 40.1051H43.297L41.9913 22.2758L41.0099 8.88418ZM26.684 40.1051H25.5267L27.7873 9.27126C28.1823 9.13482 28.5817 9.00981 28.9849 8.89499L26.684 40.1051ZM41.6062 1.00602L41.7752 3.32162L40.9755 3.09959L40.7525 4.1449L40.6857 4.45634L40.6169 3.51418L40.5491 2.58185H29.4515L29.3827 3.5132L29.314 4.44258L29.2521 4.14785L29.0399 3.14184L28.2225 3.33243L28.3934 1.00602H41.6062Z" stroke="black" stroke-width="2"/>
</g>
<defs>
<filter id="filter0_d_50_27" x="-4.02406" y="0" width="78.0481" height="66.4501" filterUnits="userSpaceOnUse" color-interpolation-filters="sRGB">
<feFlood flood-opacity="0" result="BackgroundImageFix"/>
<feColorMatrix in="SourceAlpha" type="matrix" values="0 0 0 0 0 0 0 0 0 0 0 0 0 0 0 0 0 0 127 0" result="hardAlpha"/>
<feOffset dy="4"/>
<feGaussianBlur stdDeviation="2"/>
<feComposite in2="hardAlpha" operator="out"/>
<feColorMatrix type="matrix" values="0 0 0 0 0 0 0 0 0 0 0 0 0 0 0 0 0 0 0.25 0"/>
<feBlend mode="normal" in2="BackgroundImageFix" result="effect1_dropShadow_50_27"/>
<feBlend mode="normal" in="SourceGraphic" in2="effect1_dropShadow_50_27" result="shape"/>
</filter>
</defs>
</svg>
