<svg width="30" height="35" viewBox="0 0 30 35" fill="none" xmlns="http://www.w3.org/2000/svg">
<path fill-rule="evenodd" clip-rule="evenodd" d="M9.43321 4.38232C8.39188 5.8808 8.1648 7.55172 8.44263 8.43787C8.58596 8.89492 8.34763 9.38689 7.91021 9.53669C7.47288 9.68649 7.00213 9.43732 6.85888 8.98027C6.36797 7.41455 6.82847 5.16639 8.08471 3.35876C9.38013 1.49468 11.5779 0 14.697 0C17.8663 0 20.229 1.36038 21.6769 3.16421C23.0941 4.92982 23.6772 7.19343 23.1322 8.97434C22.992 9.43253 22.523 9.68509 22.0846 9.53861C21.6463 9.39203 21.4045 8.90189 21.5448 8.44379C21.8697 7.38189 21.558 5.72638 20.4 4.28365C19.2726 2.8791 17.3795 1.74181 14.697 1.74181C12.1451 1.74181 10.4354 2.94028 9.43321 4.38232Z" fill="white"/>
<path fill-rule="evenodd" clip-rule="evenodd" d="M10.8334 1.74183C11.2936 1.74183 11.6667 2.13175 11.6667 2.61274V6.09636C11.6667 6.57737 11.2936 6.96727 10.8334 6.96727C10.3731 6.96727 10 6.57737 10 6.09636V2.61274C10 2.13175 10.3731 1.74183 10.8334 1.74183Z" fill="white"/>
<path fill-rule="evenodd" clip-rule="evenodd" d="M15 0C15.4603 0 15.8333 0.389922 15.8333 0.870907V4.35453C15.8333 4.83552 15.4603 5.22544 15 5.22544C14.5398 5.22544 14.1667 4.83552 14.1667 4.35453V0.870907C14.1667 0.389922 14.5398 0 15 0Z" fill="white"/>
<path fill-rule="evenodd" clip-rule="evenodd" d="M10.1045 22.3198C9.91424 21.9124 9.48449 21.6922 9.06549 21.7998C4.56208 22.9564 0 25.3147 0 28.8625V33.0945V34.8363H1.66667H28.3333H30V33.0945V28.8625C30 25.3147 25.4379 22.9564 20.9345 21.7998C20.5155 21.6922 20.0857 21.9124 19.8955 22.3198H16.5087C15.7682 22.3199 15.3911 22.3199 15.0207 22.3199C14.6364 22.3199 14.2593 22.3199 13.4911 22.32L10.1045 22.3198ZM16.5091 24.0616C16.5089 24.0616 16.5092 24.0616 16.5091 24.0616C15.7638 24.0618 15.3883 24.0618 15.02 24.0618C14.6382 24.0617 14.2635 24.0617 13.4915 24.0618L10.1043 24.0616L9.06316 24.0615L8.87133 23.6507C6.93608 24.1963 5.11066 24.9558 3.7635 25.8872C2.24385 26.9378 1.66667 27.9557 1.66667 28.8625V33.0945H28.3333V28.8625C28.3333 27.9557 27.7561 26.9378 26.2365 25.8872C24.8893 24.9558 23.0639 24.1963 21.1287 23.6507L20.9368 24.0616H19.8955H16.5091Z" fill="white"/>
<path d="M8.33334 26.9981C8.33334 26.5171 8.70642 26.1272 9.16667 26.1272C9.62692 26.1272 10 26.5171 10 26.9981V33.0945C10 33.5755 9.62692 33.9654 9.16667 33.9654C8.70642 33.9654 8.33334 33.5755 8.33334 33.0945V26.9981Z" fill="white"/>
<path d="M20 26.9981C20 26.5171 20.3731 26.1272 20.8334 26.1272C21.2936 26.1272 21.6667 26.5171 21.6667 26.9981V33.0945C21.6667 33.5755 21.2936 33.9654 20.8334 33.9654C20.3731 33.9654 20 33.5755 20 33.0945V26.9981Z" fill="white"/>
<path fill-rule="evenodd" clip-rule="evenodd" d="M19.1666 1.74183C19.6269 1.74183 20 2.13175 20 2.61274V6.09636C20 6.57737 19.6269 6.96727 19.1666 6.96727C18.7064 6.96727 18.3333 6.57737 18.3333 6.09636V2.61274C18.3333 2.13175 18.7064 1.74183 19.1666 1.74183Z" fill="white"/>
<path fill-rule="evenodd" clip-rule="evenodd" d="M5.47365 10.2457C5.32598 9.14843 5.94548 8.1171 6.9464 7.18732L8.05364 8.48916C7.17948 9.30119 7.09589 9.79395 7.12406 10.0031C7.15356 10.2223 7.36381 10.5838 8.11173 10.9808C9.57381 11.757 12.2254 12.1928 15 12.1928C17.7746 12.1928 20.4261 11.757 21.8882 10.9808C22.6362 10.5838 22.8465 10.2223 22.876 10.0031C22.904 9.79395 22.8205 9.30119 21.9464 8.48916L23.0536 7.18732C24.0545 8.1171 24.674 9.14843 24.5264 10.2456C24.38 11.3328 23.5356 12.06 22.643 12.5338C20.8238 13.4995 17.8504 13.9346 15 13.9346C12.1496 13.9346 9.17614 13.4995 7.35698 12.5338C6.46431 12.06 5.6199 11.3328 5.47365 10.2457Z" fill="white"/>
<path fill-rule="evenodd" clip-rule="evenodd" d="M9.16671 12.1927C9.16671 15.5596 11.7784 18.289 15 18.289C18.2217 18.289 20.8334 15.5596 20.8334 12.1927H22.5C22.5 16.5216 19.1422 20.0308 15 20.0308C10.8579 20.0308 7.50005 16.5216 7.50005 12.1927H9.16671Z" fill="white"/>
</svg>
