<svg width="27" height="27" viewBox="0 0 27 27" fill="none" xmlns="http://www.w3.org/2000/svg">
<mask id="mask0_8_82" style="mask-type:luminance" maskUnits="userSpaceOnUse" x="-3" y="-3" width="33" height="33">
<rect x="-2.70057" y="-2.69995" width="32.3999" height="32.3999" fill="white"/>
</mask>
<g mask="url(#mask0_8_82)">
<path d="M11.1407 5.24392L11.5165 10.8329L11.7031 13.6419C11.7051 13.9308 11.7504 14.2178 11.8377 14.4936C12.063 15.029 12.6052 15.3692 13.195 15.3455L22.1822 14.7576C22.5714 14.7512 22.9472 14.8967 23.2269 15.1623C23.4601 15.3836 23.6106 15.673 23.6581 15.9843L23.6741 16.1733C23.3021 21.3231 19.5199 25.6185 14.3807 26.7273C9.24146 27.836 3.9715 25.4938 1.43195 20.9721C0.699822 19.6584 0.242524 18.2146 0.0869104 16.7252C0.0219081 16.2843 -0.00671187 15.8389 0.00132061 15.3934C-0.00671187 9.87223 3.92507 5.09896 9.42881 3.94824C10.0912 3.84508 10.7406 4.19576 11.0062 4.80003C11.075 4.93997 11.1203 5.08985 11.1407 5.24392Z" fill="white"/>
<path opacity="0.4" d="M26.9995 10.5466L26.99 10.5906L26.9628 10.6545L26.9665 10.8302C26.9525 11.0628 26.8626 11.2866 26.7079 11.4675C26.5466 11.6559 26.3262 11.7841 26.0837 11.8339L25.9357 11.8542L15.5666 12.5261C15.2217 12.5601 14.8783 12.4489 14.6219 12.2202C14.4081 12.0294 14.2715 11.7721 14.2328 11.4948L13.5369 1.14083C13.5248 1.10582 13.5248 1.06787 13.5369 1.03285C13.5464 0.747451 13.6721 0.477682 13.8858 0.283809C14.0993 0.089936 14.3834 -0.011881 14.674 0.00110599C20.8299 0.157719 26.0036 4.5843 26.9995 10.5466Z" fill="white"/>
</g>
</svg>
